<svg width="60" height="40" viewBox="0 0 60 40" fill="none" xmlns="http://www.w3.org/2000/svg">
<path d="M30 0C16.3636 0 4.71818 8.29333 0 20C4.71818 31.7067 16.3636 40 30 40C43.65 40 55.2818 31.7067 60 20C55.2818 8.29333 43.65 0 30 0ZM30 33.3333C22.4727 33.3333 16.3636 27.36 16.3636 20C16.3636 12.64 22.4727 6.66667 30 6.66667C37.5273 6.66667 43.6364 12.64 43.6364 20C43.6364 27.36 37.5273 33.3333 30 33.3333ZM30 12C25.4864 12 21.8182 15.5867 21.8182 20C21.8182 24.4133 25.4864 28 30 28C34.5136 28 38.1818 24.4133 38.1818 20C38.1818 15.5867 34.5136 12 30 12Z" fill="black"/>
</svg>
